<svg xmlns="http://www.w3.org/2000/svg" xmlns:xlink="http://www.w3.org/1999/xlink" width="50" zoomAndPan="magnify" viewBox="0 0 37.5 37.499999" height="50" preserveAspectRatio="xMidYMid meet" version="1.0"><defs><clipPath id="1b61ea4b24"><path d="M 1.160156 4 L 34 4 L 34 36.21875 L 1.160156 36.21875 Z M 1.160156 4 " clip-rule="nonzero"/></clipPath><clipPath id="8dff565759"><path d="M 21 0.691406 L 35.945312 0.691406 L 35.945312 15 L 21 15 Z M 21 0.691406 " clip-rule="nonzero"/></clipPath><clipPath id="e7bc2f1d6f"><path d="M 1.160156 20 L 34 20 L 34 36.21875 L 1.160156 36.21875 Z M 1.160156 20 " clip-rule="nonzero"/></clipPath><clipPath id="d28fdde05c"><path d="M 10.484375 13.765625 L 15 13.765625 L 15 26.347656 L 10.484375 26.347656 Z M 10.484375 13.765625 " clip-rule="nonzero"/></clipPath><clipPath id="47fb7448ed"><path d="M 10.484375 13.765625 L 24.546875 13.765625 L 24.546875 26.347656 L 10.484375 26.347656 Z M 10.484375 13.765625 " clip-rule="nonzero"/></clipPath></defs><g clip-path="url(#1b61ea4b24)"><path fill="#004aad" d="M 33.480469 20.183594 L 33.480469 24.25 C 33.480469 30.917969 28.054688 36.339844 21.386719 36.339844 L 1.160156 36.339844 L 1.160156 16.117188 C 1.160156 9.449219 6.585938 4.023438 13.253906 4.023438 L 17.320312 4.023438 L 17.320312 10.765625 L 13.253906 10.765625 C 10.300781 10.765625 7.902344 13.164062 7.902344 16.117188 L 7.902344 29.601562 L 21.386719 29.601562 C 24.335938 29.601562 26.738281 27.199219 26.738281 24.25 L 26.738281 20.183594 Z M 33.480469 20.183594 " fill-opacity="1" fill-rule="nonzero"/></g><g clip-path="url(#8dff565759)"><path fill="#2baadf" d="M 31.019531 5.480469 L 31.019531 0.691406 L 26.304688 0.691406 L 26.304688 5.480469 L 21.515625 5.480469 L 21.515625 10.195312 L 26.304688 10.195312 L 26.304688 14.984375 L 31.019531 14.984375 L 31.019531 10.195312 L 35.808594 10.195312 L 35.808594 5.480469 Z M 31.019531 5.480469 " fill-opacity="1" fill-rule="nonzero"/></g><g clip-path="url(#e7bc2f1d6f)"><path fill="#2baadf" d="M 33.480469 20.183594 L 33.480469 24.25 C 33.480469 30.917969 28.054688 36.339844 21.386719 36.339844 L 1.160156 36.339844 L 1.160156 36.007812 L 7.902344 29.460938 L 7.902344 29.601562 L 21.386719 29.601562 C 24.335938 29.601562 26.738281 27.199219 26.738281 24.25 L 26.738281 20.183594 Z M 33.480469 20.183594 " fill-opacity="1" fill-rule="nonzero"/></g><g clip-path="url(#d28fdde05c)"><path fill="#2baadf" d="M 10.484375 19.203125 L 10.484375 26.53125 L 14.582031 26.53125 C 14.582031 26.238281 14.582031 25.945312 14.582031 25.648438 C 14.582031 24.53125 14.679688 24.066406 13.746094 23.269531 C 12.496094 22.203125 11.140625 20.8125 10.484375 19.203125 Z M 14.582031 14.855469 L 14.582031 13.765625 L 10.484375 13.765625 L 10.484375 16.90625 C 10.484375 18.605469 11.636719 18.765625 13.078125 17.664062 C 14.019531 16.941406 14.582031 16.089844 14.582031 14.855469 Z M 14.582031 14.855469 " fill-opacity="1" fill-rule="nonzero"/></g><g clip-path="url(#47fb7448ed)"><path fill="#004aad" d="M 14.484375 22.695312 C 15.683594 23.640625 16.882812 24.589844 18.082031 25.539062 L 18.421875 25.808594 C 18.886719 26.175781 19.148438 26.359375 19.417969 26.445312 C 19.683594 26.527344 20.027344 26.53125 20.636719 26.53125 L 24.441406 26.53125 L 17.066406 20.539062 C 17.039062 20.515625 17.011719 20.492188 16.988281 20.460938 C 16.816406 20.25 16.847656 19.9375 17.058594 19.765625 L 24.441406 13.765625 L 20.636719 13.765625 C 20.027344 13.765625 19.683594 13.769531 19.417969 13.855469 C 19.148438 13.9375 18.886719 14.125 18.421875 14.488281 L 18.082031 14.761719 C 16.882812 15.707031 15.683594 16.65625 14.484375 17.605469 C 13.382812 18.476562 11.503906 19.992188 10.484375 18.222656 C 10.71875 19.824219 12.65625 21.25 14.484375 22.695312 Z M 14.484375 22.695312 " fill-opacity="1" fill-rule="nonzero"/></g></svg>